<?xml version="1.0" standalone="no"?>
<!DOCTYPE svg PUBLIC "-//W3C//DTD SVG 20010904//EN"
 "http://www.w3.org/TR/2001/REC-SVG-20010904/DTD/svg10.dtd">
<svg version="1.0" xmlns="http://www.w3.org/2000/svg"
 width="219.000000pt" height="157.000000pt" viewBox="0 0 219.000000 157.000000"
 preserveAspectRatio="xMidYMid meet">

<g transform="translate(0.000000,157.000000) scale(0.100000,-0.100000)"
fill="#000000" stroke="none">
<path d="M296 930 c-94 -37 -146 -109 -146 -202 0 -106 72 -190 177 -207 39
-6 64 -18 101 -49 27 -23 53 -42 56 -42 3 0 6 27 6 60 0 53 4 65 34 105 38 49
47 79 49 159 1 43 -4 62 -26 94 -62 94 -150 123 -251 82z m-8 -186 c4 -27 -21
-47 -48 -39 -20 6 -28 44 -13 59 15 15 58 1 61 -20z m101 7 c13 -24 -8 -55
-34 -50 -28 6 -42 34 -26 53 18 22 48 20 60 -3z m109 -7 c4 -27 -21 -47 -48
-39 -20 6 -28 44 -13 59 15 15 58 1 61 -20z"/>
<path d="M592 478 c-7 -7 -12 -40 -12 -79 0 -57 4 -72 24 -96 21 -24 31 -28
80 -28 82 0 101 22 101 120 0 46 -5 79 -12 87 -24 23 -37 -7 -34 -77 3 -76
-15 -115 -52 -115 -44 0 -52 15 -57 106 -5 86 -14 106 -38 82z"/>
<path d="M863 418 c-38 -18 -52 -89 -36 -181 5 -31 9 -38 27 -35 18 3 21 9 18
41 l-4 37 40 -6 c53 -8 82 19 82 75 0 65 -64 99 -127 69z m78 -35 c11 -28 4
-79 -12 -89 -6 -3 -21 -3 -35 0 -21 6 -24 12 -24 49 0 24 5 48 12 55 20 20 48
14 59 -15z"/>
</g>
</svg>
